<mxfile host="Electron" agent="Mozilla/5.0 (Windows NT 10.0; Win64; x64) AppleWebKit/537.36 (KHTML, like Gecko) draw.io/24.7.5 Chrome/126.0.6478.183 Electron/31.3.0 Safari/537.36" version="24.7.5">
  <diagram name="Page-1" id="6wY9VqDfw_D_Nogkt-FH">
    <mxGraphModel dx="3933" dy="2387" grid="1" gridSize="10" guides="1" tooltips="1" connect="1" arrows="1" fold="1" page="1" pageScale="1" pageWidth="1600" pageHeight="900" math="0" shadow="0">
      <root>
        <mxCell id="0" />
        <mxCell id="1" parent="0" />
        <mxCell id="gT9IReFZBZHxwUJaljAH-1" value="" style="strokeWidth=1;shadow=0;dashed=0;align=center;html=1;shape=mxgraph.mockup.containers.browserWindow;rSize=0;strokeColor=#666666;strokeColor2=#008cff;strokeColor3=#c4c4c4;mainText=,;recursiveResize=0;container=0;movable=0;resizable=0;rotatable=0;deletable=0;editable=0;locked=1;connectable=0;" vertex="1" parent="1">
          <mxGeometry x="10" y="10" width="1580" height="880" as="geometry" />
        </mxCell>
        <mxCell id="gT9IReFZBZHxwUJaljAH-104" value="" style="rounded=1;whiteSpace=wrap;html=1;sketch=1;curveFitting=1;jiggle=2;" vertex="1" parent="1">
          <mxGeometry x="230" y="270" width="700" height="430" as="geometry" />
        </mxCell>
        <mxCell id="gT9IReFZBZHxwUJaljAH-2" value="Devflix" style="text;html=1;points=[];align=left;verticalAlign=top;spacingTop=-4;fontSize=45;fontFamily=Verdana;" vertex="1" parent="1">
          <mxGeometry x="60" y="160" width="340" height="50" as="geometry" />
        </mxCell>
        <mxCell id="gT9IReFZBZHxwUJaljAH-3" value="Page 1" style="strokeWidth=1;shadow=0;dashed=0;align=center;html=1;shape=mxgraph.mockup.containers.anchor;fontSize=17;fontColor=#666666;align=left;whiteSpace=wrap;" vertex="1" parent="1">
          <mxGeometry x="70" y="22" width="110" height="26" as="geometry" />
        </mxCell>
        <mxCell id="gT9IReFZBZHxwUJaljAH-4" value="https://www.devflix.com/ajout/acteur" style="strokeWidth=1;shadow=0;dashed=0;align=center;html=1;shape=mxgraph.mockup.containers.anchor;rSize=0;fontSize=17;fontColor=#666666;align=left;" vertex="1" parent="1">
          <mxGeometry x="140" y="70" width="380" height="26" as="geometry" />
        </mxCell>
        <mxCell id="gT9IReFZBZHxwUJaljAH-5" value="" style="swimlane;shape=mxgraph.bootstrap.anchor;strokeColor=#999999;fillColor=#ffffff;fontColor=#666666;childLayout=stackLayout;horizontal=0;startSize=0;horizontalStack=1;resizeParent=1;resizeParentMax=0;resizeLast=0;collapsible=0;marginBottom=0;whiteSpace=wrap;html=1;" vertex="1" parent="1">
          <mxGeometry x="1080" y="150" width="480" height="30" as="geometry" />
        </mxCell>
        <mxCell id="gT9IReFZBZHxwUJaljAH-6" value="Catalogue" style="text;strokeColor=inherit;align=center;verticalAlign=middle;spacingLeft=10;spacingRight=10;overflow=hidden;points=[[0,0.5],[1,0.5]];portConstraint=eastwest;rotatable=0;whiteSpace=wrap;html=1;fillColor=inherit;fontColor=inherit;fontSize=17;" vertex="1" parent="gT9IReFZBZHxwUJaljAH-5">
          <mxGeometry width="120" height="30" as="geometry" />
        </mxCell>
        <mxCell id="gT9IReFZBZHxwUJaljAH-7" value="Acteurs" style="text;strokeColor=#23445d;align=center;verticalAlign=middle;spacingLeft=10;spacingRight=10;overflow=hidden;points=[[0,0.5],[1,0.5]];portConstraint=eastwest;rotatable=0;whiteSpace=wrap;html=1;fillColor=#bac8d3;fontSize=17;" vertex="1" parent="gT9IReFZBZHxwUJaljAH-5">
          <mxGeometry x="120" width="120" height="30" as="geometry" />
        </mxCell>
        <mxCell id="gT9IReFZBZHxwUJaljAH-8" value="Mon compte" style="text;strokeColor=inherit;align=center;verticalAlign=middle;spacingLeft=10;spacingRight=10;overflow=hidden;points=[[0,0.5],[1,0.5]];portConstraint=eastwest;rotatable=0;whiteSpace=wrap;html=1;fillColor=inherit;fontColor=inherit;fontSize=17;" vertex="1" parent="gT9IReFZBZHxwUJaljAH-5">
          <mxGeometry x="240" width="120" height="30" as="geometry" />
        </mxCell>
        <mxCell id="gT9IReFZBZHxwUJaljAH-9" value="Déconnexion&amp;nbsp;" style="text;strokeColor=#6F0000;align=center;verticalAlign=middle;spacingLeft=10;spacingRight=10;overflow=hidden;points=[[0,0.5],[1,0.5]];portConstraint=eastwest;rotatable=0;whiteSpace=wrap;html=1;fillColor=#a20025;fontColor=#ffffff;fontSize=17;" vertex="1" parent="gT9IReFZBZHxwUJaljAH-5">
          <mxGeometry x="360" width="120" height="30" as="geometry" />
        </mxCell>
        <mxCell id="gT9IReFZBZHxwUJaljAH-10" value="Mentions Legales" style="fillColor=none;strokeColor=none;html=1;fontColor=#0057D8;align=center;verticalAlign=middle;fontStyle=0;fontSize=17;" vertex="1" parent="1">
          <mxGeometry x="105" y="800" width="250" height="75" as="geometry" />
        </mxCell>
        <mxCell id="gT9IReFZBZHxwUJaljAH-11" value="FAQ" style="fillColor=none;strokeColor=none;html=1;fontColor=#0057D8;align=center;verticalAlign=middle;fontStyle=0;fontSize=17;fontFamily=Helvetica;" vertex="1" parent="1">
          <mxGeometry x="495" y="800" width="250" height="75" as="geometry" />
        </mxCell>
        <mxCell id="gT9IReFZBZHxwUJaljAH-12" value="Contacts" style="fillColor=none;strokeColor=none;html=1;fontColor=#0057D8;align=center;verticalAlign=middle;fontStyle=0;fontSize=17;fontFamily=Helvetica;" vertex="1" parent="1">
          <mxGeometry x="875" y="800" width="250" height="75" as="geometry" />
        </mxCell>
        <mxCell id="gT9IReFZBZHxwUJaljAH-13" value="Carrière&amp;nbsp;" style="fillColor=none;strokeColor=none;html=1;fontColor=#0057D8;align=center;verticalAlign=middle;fontStyle=0;fontSize=17;fontFamily=Helvetica;" vertex="1" parent="1">
          <mxGeometry x="1245" y="800" width="250" height="75" as="geometry" />
        </mxCell>
        <mxCell id="gT9IReFZBZHxwUJaljAH-14" value="C4" style="strokeWidth=1;shadow=0;dashed=0;align=center;html=1;shape=mxgraph.mockup.text.callout;linkText=;textSize=17;textColor=#666666;callDir=NE;callStyle=line;fontSize=17;align=right;verticalAlign=top;strokeColor=#005700;fillColor=#008a00;fontColor=#ffffff;" vertex="1" parent="1">
          <mxGeometry x="1260" y="-80" width="160" height="230" as="geometry" />
        </mxCell>
        <mxCell id="gT9IReFZBZHxwUJaljAH-15" value="C1" style="strokeWidth=1;shadow=0;dashed=0;align=center;html=1;shape=mxgraph.mockup.text.callout;linkText=;textSize=17;textColor=#666666;callDir=NE;callStyle=line;fontSize=17;align=right;verticalAlign=top;strokeColor=#005700;fillColor=#008a00;fontColor=#ffffff;" vertex="1" parent="1">
          <mxGeometry x="1140" y="-80" width="160" height="230" as="geometry" />
        </mxCell>
        <mxCell id="gT9IReFZBZHxwUJaljAH-17" value="C17" style="strokeWidth=1;shadow=0;dashed=0;align=center;html=1;shape=mxgraph.mockup.text.callout;linkText=;textSize=17;textColor=#666666;callDir=NE;callStyle=line;fontSize=17;align=right;verticalAlign=top;strokeColor=#005700;fillColor=#008a00;fontColor=#ffffff;" vertex="1" parent="1">
          <mxGeometry x="1380" y="-80" width="160" height="230" as="geometry" />
        </mxCell>
        <mxCell id="gT9IReFZBZHxwUJaljAH-18" value="C46" style="strokeWidth=1;shadow=0;dashed=0;align=center;html=1;shape=mxgraph.mockup.text.callout;linkText=;textSize=17;textColor=#666666;callDir=NE;callStyle=line;fontSize=17;align=right;verticalAlign=top;strokeColor=#005700;fillColor=#008a00;fontColor=#ffffff;" vertex="1" parent="1">
          <mxGeometry x="1500" y="-80" width="160" height="230" as="geometry" />
        </mxCell>
        <mxCell id="gT9IReFZBZHxwUJaljAH-82" value="Bio" style="fillColor=none;strokeColor=none;align=left;fontSize=14;" vertex="1" parent="1">
          <mxGeometry width="260" height="40" relative="1" as="geometry">
            <mxPoint x="260" y="510" as="offset" />
          </mxGeometry>
        </mxCell>
        <mxCell id="gT9IReFZBZHxwUJaljAH-83" value="" style="html=1;shadow=0;dashed=0;shape=mxgraph.bootstrap.rrect;rSize=5;fillColor=none;strokeColor=#999999;align=left;spacing=15;fontSize=14;fontColor=#6C767D;" vertex="1" parent="1">
          <mxGeometry width="460" height="90" relative="1" as="geometry">
            <mxPoint x="260" y="550" as="offset" />
          </mxGeometry>
        </mxCell>
        <mxCell id="gT9IReFZBZHxwUJaljAH-90" value="Date de décès&amp;nbsp;" style="fillColor=none;strokeColor=none;html=1;fontSize=14;fontStyle=0;align=left;fontColor=default;fontStyle=1;fontSize=11;hachureGap=4;pointerEvents=0;fontFamily=Helvetica;rounded=0;glass=0;shadow=0;verticalAlign=middle;" vertex="1" parent="1">
          <mxGeometry x="570" y="370" width="100" height="20" as="geometry" />
        </mxCell>
        <mxCell id="gT9IReFZBZHxwUJaljAH-91" value="AAA-MM-JJ" style="html=1;shadow=0;dashed=0;shape=mxgraph.bootstrap.rrect;rSize=5;fillColor=none;strokeColor=#999999;align=left;spacing=15;fontSize=14;fontColor=#6C767D;flipV=1;" vertex="1" parent="1">
          <mxGeometry x="570" y="400" width="150" height="30" as="geometry" />
        </mxCell>
        <mxCell id="gT9IReFZBZHxwUJaljAH-92" value="" style="shape=mxgraph.gmdl.calendar;fillColor=none;strokeColor=#999999;sketch=0;hachureGap=4;pointerEvents=0;fontFamily=Helvetica;fontSize=14;shadow=0;dashed=0;align=left;verticalAlign=middle;spacing=15;fontColor=#6C767D;" vertex="1" parent="1">
          <mxGeometry x="691" y="406" width="18" height="18" as="geometry">
            <mxPoint x="-29" y="-9" as="offset" />
          </mxGeometry>
        </mxCell>
        <mxCell id="gT9IReFZBZHxwUJaljAH-94" value="Retour" style="rounded=1;fillColor=#F1F2F4;strokeColor=none;html=1;whiteSpace=wrap;fontColor=#596780;align=center;verticalAlign=middle;fontStyle=0;fontSize=17;sketch=0;fontFamily=Helvetica;" vertex="1" parent="1">
          <mxGeometry x="1370" y="700" width="200" height="60" as="geometry" />
        </mxCell>
        <mxCell id="gT9IReFZBZHxwUJaljAH-95" value="C33" style="strokeWidth=1;shadow=0;dashed=0;align=center;html=1;shape=mxgraph.mockup.text.callout;linkText=;textSize=17;textColor=#666666;callDir=NE;callStyle=line;fontSize=17;align=right;verticalAlign=top;strokeColor=#005700;fillColor=#008a00;fontColor=#ffffff;" vertex="1" parent="1">
          <mxGeometry x="1250" y="540" width="490" height="160" as="geometry" />
        </mxCell>
        <mxCell id="gT9IReFZBZHxwUJaljAH-100" value="Photo" style="fillColor=none;strokeColor=none;html=1;fontSize=14;fontStyle=0;align=left;fontColor=default;fontStyle=1;fontSize=11;hachureGap=4;pointerEvents=0;fontFamily=Helvetica;rounded=0;glass=0;shadow=0;verticalAlign=middle;" vertex="1" parent="1">
          <mxGeometry x="570" y="440" width="100" height="20" as="geometry" />
        </mxCell>
        <mxCell id="gT9IReFZBZHxwUJaljAH-101" value="img file" style="html=1;shadow=0;dashed=0;shape=mxgraph.bootstrap.rrect;rSize=5;fillColor=none;strokeColor=#999999;align=left;spacing=15;fontSize=14;fontColor=#6C767D;flipV=1;" vertex="1" parent="1">
          <mxGeometry x="570" y="470" width="150" height="30" as="geometry" />
        </mxCell>
        <mxCell id="gT9IReFZBZHxwUJaljAH-102" value="" style="sketch=0;pointerEvents=1;shadow=0;dashed=0;html=1;strokeColor=none;fillColor=#505050;labelPosition=center;verticalLabelPosition=bottom;verticalAlign=top;outlineConnect=0;align=center;shape=mxgraph.office.concepts.upload;" vertex="1" parent="1">
          <mxGeometry x="690" y="474" width="20" height="20" as="geometry" />
        </mxCell>
        <mxCell id="gT9IReFZBZHxwUJaljAH-103" value="Ajouter" style="rounded=1;fillColor=#008a00;strokeColor=#005700;html=1;whiteSpace=wrap;fontColor=#ffffff;align=center;verticalAlign=middle;fontStyle=0;fontSize=17;sketch=0;fontFamily=Helvetica;" vertex="1" parent="1">
          <mxGeometry x="1150" y="700" width="200" height="60" as="geometry" />
        </mxCell>
        <mxCell id="gT9IReFZBZHxwUJaljAH-106" value="C32" style="strokeWidth=1;shadow=0;dashed=0;align=right;html=1;shape=mxgraph.mockup.text.callout;linkText=;textSize=17;textColor=#666666;callDir=NW;callStyle=line;fontSize=17;fontColor=#ffffff;align=left;verticalAlign=top;strokeColor=#005700;fontFamily=Helvetica;fillColor=#008a00;" vertex="1" parent="1">
          <mxGeometry x="-95" y="430" width="325" height="50" as="geometry" />
        </mxCell>
        <mxCell id="gT9IReFZBZHxwUJaljAH-108" value="C8" style="strokeWidth=1;shadow=0;dashed=0;align=center;html=1;shape=mxgraph.mockup.text.callout;linkText=;textSize=17;textColor=#666666;callDir=NE;callStyle=line;fontSize=17;align=right;verticalAlign=top;strokeColor=#005700;fillColor=#008a00;fontColor=#ffffff;" vertex="1" parent="1">
          <mxGeometry x="1480" y="600" width="260" height="100" as="geometry" />
        </mxCell>
        <mxCell id="gT9IReFZBZHxwUJaljAH-109" value="" style="group" vertex="1" connectable="0" parent="1">
          <mxGeometry x="260" y="290" width="270" height="70" as="geometry" />
        </mxCell>
        <mxCell id="gT9IReFZBZHxwUJaljAH-84" value="Nom" style="fillColor=none;strokeColor=none;align=left;fontSize=14;" vertex="1" parent="gT9IReFZBZHxwUJaljAH-109">
          <mxGeometry width="260" height="40" as="geometry" />
        </mxCell>
        <mxCell id="gT9IReFZBZHxwUJaljAH-85" value="Doe" style="html=1;shadow=0;dashed=0;shape=mxgraph.bootstrap.rrect;rSize=5;fillColor=none;strokeColor=#999999;align=left;spacing=15;fontSize=14;fontColor=#6C767D;" vertex="1" parent="gT9IReFZBZHxwUJaljAH-109">
          <mxGeometry y="40" width="270" height="30" as="geometry" />
        </mxCell>
        <mxCell id="gT9IReFZBZHxwUJaljAH-110" value="" style="group" vertex="1" connectable="0" parent="1">
          <mxGeometry x="260" y="430" width="260" height="62" as="geometry" />
        </mxCell>
        <mxCell id="gT9IReFZBZHxwUJaljAH-68" value="Nationalité" style="fillColor=none;strokeColor=none;align=left;fontSize=14;" vertex="1" parent="gT9IReFZBZHxwUJaljAH-110">
          <mxGeometry width="260" height="40" as="geometry" />
        </mxCell>
        <mxCell id="gT9IReFZBZHxwUJaljAH-69" value="1" style="html=1;shadow=0;dashed=0;shape=mxgraph.bootstrap.rrect;rSize=5;fillColor=none;strokeColor=#999999;align=left;spacing=15;fontSize=14;fontColor=#6C767D;" vertex="1" parent="gT9IReFZBZHxwUJaljAH-110">
          <mxGeometry width="270" height="30" relative="1" as="geometry">
            <mxPoint y="40" as="offset" />
          </mxGeometry>
        </mxCell>
        <mxCell id="gT9IReFZBZHxwUJaljAH-116" value="" style="shape=triangle;direction=south;fillColor=#596780;strokeColor=none;html=1;sketch=0;" vertex="1" parent="gT9IReFZBZHxwUJaljAH-110">
          <mxGeometry x="248" y="56" width="12" height="6" as="geometry">
            <mxPoint x="156" y="14" as="offset" />
          </mxGeometry>
        </mxCell>
        <mxCell id="gT9IReFZBZHxwUJaljAH-111" value="" style="group" vertex="1" connectable="0" parent="1">
          <mxGeometry x="260" y="360" width="270" height="70" as="geometry" />
        </mxCell>
        <mxCell id="gT9IReFZBZHxwUJaljAH-112" value="Prenom" style="fillColor=none;strokeColor=none;align=left;fontSize=14;" vertex="1" parent="gT9IReFZBZHxwUJaljAH-111">
          <mxGeometry width="260" height="40" as="geometry" />
        </mxCell>
        <mxCell id="gT9IReFZBZHxwUJaljAH-113" value="John" style="html=1;shadow=0;dashed=0;shape=mxgraph.bootstrap.rrect;rSize=5;fillColor=none;strokeColor=#999999;align=left;spacing=15;fontSize=14;fontColor=#6C767D;" vertex="1" parent="gT9IReFZBZHxwUJaljAH-111">
          <mxGeometry y="40" width="270" height="30" as="geometry" />
        </mxCell>
        <mxCell id="gT9IReFZBZHxwUJaljAH-114" value="" style="group" vertex="1" connectable="0" parent="1">
          <mxGeometry x="570" y="300" width="150" height="60" as="geometry" />
        </mxCell>
        <mxCell id="gT9IReFZBZHxwUJaljAH-86" value="Date de naissance" style="fillColor=none;strokeColor=none;html=1;fontSize=14;fontStyle=0;align=left;fontColor=default;fontStyle=1;fontSize=11;hachureGap=4;pointerEvents=0;fontFamily=Helvetica;rounded=0;glass=0;shadow=0;verticalAlign=middle;" vertex="1" parent="gT9IReFZBZHxwUJaljAH-114">
          <mxGeometry width="100" height="20" as="geometry" />
        </mxCell>
        <mxCell id="gT9IReFZBZHxwUJaljAH-89" value="AAA-MM-JJ" style="html=1;shadow=0;dashed=0;shape=mxgraph.bootstrap.rrect;rSize=5;fillColor=none;strokeColor=#999999;align=left;spacing=15;fontSize=14;fontColor=#6C767D;flipV=1;" vertex="1" parent="gT9IReFZBZHxwUJaljAH-114">
          <mxGeometry y="30" width="150" height="30" as="geometry" />
        </mxCell>
        <mxCell id="gT9IReFZBZHxwUJaljAH-88" value="" style="shape=mxgraph.gmdl.calendar;fillColor=none;strokeColor=#999999;sketch=0;hachureGap=4;pointerEvents=0;fontFamily=Helvetica;fontSize=14;shadow=0;dashed=0;align=left;verticalAlign=middle;spacing=15;fontColor=#6C767D;" vertex="1" parent="gT9IReFZBZHxwUJaljAH-114">
          <mxGeometry x="121" y="36" width="18" height="18" as="geometry">
            <mxPoint x="-29" y="-9" as="offset" />
          </mxGeometry>
        </mxCell>
        <mxCell id="gT9IReFZBZHxwUJaljAH-117" value="" style="group" vertex="1" connectable="0" parent="1">
          <mxGeometry x="30" y="-170" width="285" height="140" as="geometry" />
        </mxCell>
        <mxCell id="gT9IReFZBZHxwUJaljAH-118" value="" style="rounded=0;whiteSpace=wrap;html=1;" vertex="1" parent="gT9IReFZBZHxwUJaljAH-117">
          <mxGeometry width="260" height="140" as="geometry" />
        </mxCell>
        <mxCell id="gT9IReFZBZHxwUJaljAH-119" value="&lt;font style=&quot;font-size: 24px;&quot;&gt;Vue: AjoutActeur&lt;/font&gt;&lt;div style=&quot;font-size: 24px;&quot;&gt;&lt;font style=&quot;font-size: 24px;&quot;&gt;Auteur: Mickael&lt;/font&gt;&lt;/div&gt;&lt;div style=&quot;font-size: 24px;&quot;&gt;&lt;font style=&quot;font-size: 24px;&quot;&gt;Création: 24-08-01&lt;/font&gt;&lt;/div&gt;&lt;div style=&quot;font-size: 24px;&quot;&gt;&lt;font style=&quot;font-size: 24px;&quot;&gt;Modification: 24-08-11&lt;/font&gt;&lt;/div&gt;" style="text;html=1;whiteSpace=wrap;overflow=hidden;rounded=0;" vertex="1" parent="gT9IReFZBZHxwUJaljAH-117">
          <mxGeometry x="15" width="270" height="140" as="geometry" />
        </mxCell>
      </root>
    </mxGraphModel>
  </diagram>
</mxfile>
